<mxfile host="Electron" modified="2024-03-24T09:16:11.038Z" agent="Mozilla/5.0 (Macintosh; Intel Mac OS X 10_15_7) AppleWebKit/537.36 (KHTML, like Gecko) draw.io/23.1.5 Chrome/120.0.6099.109 Electron/28.1.0 Safari/537.36" etag="nxep8CKFWAudfexMsd8-" version="23.1.5" type="device">
  <diagram name="Pagina-1" id="Mb2_Sertav29NbVagjvn">
    <mxGraphModel dx="1434" dy="917" grid="1" gridSize="10" guides="1" tooltips="1" connect="1" arrows="1" fold="1" page="1" pageScale="1" pageWidth="827" pageHeight="1169" math="0" shadow="0">
      <root>
        <mxCell id="0" />
        <mxCell id="1" parent="0" />
        <mxCell id="9HRKabhM0mPHnpSKMiT4-4" value="" style="shape=hexagon;perimeter=hexagonPerimeter2;whiteSpace=wrap;html=1;fixedSize=1;fillColor=none;gradientColor=default;strokeColor=#FF0000;strokeWidth=3;opacity=70;" vertex="1" parent="1">
          <mxGeometry x="30.45" y="250" width="80" height="70" as="geometry" />
        </mxCell>
        <mxCell id="9HRKabhM0mPHnpSKMiT4-7" value="" style="shape=hexagon;perimeter=hexagonPerimeter2;whiteSpace=wrap;html=1;fixedSize=1;fillColor=none;gradientColor=default;strokeColor=#FF0000;strokeWidth=3;opacity=70;" vertex="1" parent="1">
          <mxGeometry x="100.45" y="210" width="80" height="70" as="geometry" />
        </mxCell>
        <mxCell id="9HRKabhM0mPHnpSKMiT4-8" value="" style="shape=hexagon;perimeter=hexagonPerimeter2;whiteSpace=wrap;html=1;fixedSize=1;fillColor=none;gradientColor=default;strokeColor=#CC6600;strokeWidth=3;opacity=70;" vertex="1" parent="1">
          <mxGeometry x="170.45" y="250" width="80" height="70" as="geometry" />
        </mxCell>
        <mxCell id="9HRKabhM0mPHnpSKMiT4-9" value="" style="shape=hexagon;perimeter=hexagonPerimeter2;whiteSpace=wrap;html=1;fixedSize=1;fillColor=none;gradientColor=default;strokeColor=#CC6600;strokeWidth=3;opacity=70;" vertex="1" parent="1">
          <mxGeometry x="170.45" y="330" width="80" height="70" as="geometry" />
        </mxCell>
        <mxCell id="9HRKabhM0mPHnpSKMiT4-10" value="" style="shape=hexagon;perimeter=hexagonPerimeter2;whiteSpace=wrap;html=1;fixedSize=1;fillColor=none;gradientColor=default;strokeColor=#FF9933;strokeWidth=3;opacity=70;" vertex="1" parent="1">
          <mxGeometry x="240.45" y="290" width="80" height="70" as="geometry" />
        </mxCell>
        <mxCell id="9HRKabhM0mPHnpSKMiT4-11" value="" style="shape=hexagon;perimeter=hexagonPerimeter2;whiteSpace=wrap;html=1;fixedSize=1;fillColor=none;gradientColor=default;strokeColor=#FF9933;strokeWidth=3;opacity=70;" vertex="1" parent="1">
          <mxGeometry x="310.45" y="330" width="80" height="70" as="geometry" />
        </mxCell>
        <mxCell id="9HRKabhM0mPHnpSKMiT4-12" value="" style="shape=hexagon;perimeter=hexagonPerimeter2;whiteSpace=wrap;html=1;fixedSize=1;fillColor=none;gradientColor=default;strokeColor=#FFB366;strokeWidth=1;opacity=70;" vertex="1" parent="1">
          <mxGeometry x="380.45" y="290" width="80" height="70" as="geometry" />
        </mxCell>
        <mxCell id="9HRKabhM0mPHnpSKMiT4-13" value="" style="shape=hexagon;perimeter=hexagonPerimeter2;whiteSpace=wrap;html=1;fixedSize=1;fillColor=none;gradientColor=default;strokeColor=#FF9933;strokeWidth=1;opacity=70;" vertex="1" parent="1">
          <mxGeometry x="310.45" y="250" width="80" height="70" as="geometry" />
        </mxCell>
        <mxCell id="9HRKabhM0mPHnpSKMiT4-14" value="" style="shape=hexagon;perimeter=hexagonPerimeter2;whiteSpace=wrap;html=1;fixedSize=1;fillColor=none;gradientColor=default;strokeColor=#FF0000;strokeWidth=3;opacity=70;" vertex="1" parent="1">
          <mxGeometry x="30.45" y="100" width="80" height="70" as="geometry" />
        </mxCell>
        <mxCell id="9HRKabhM0mPHnpSKMiT4-15" value="" style="shape=hexagon;perimeter=hexagonPerimeter2;whiteSpace=wrap;html=1;fixedSize=1;fillColor=none;gradientColor=default;strokeColor=#FF0000;strokeWidth=3;opacity=70;" vertex="1" parent="1">
          <mxGeometry x="100" y="129.61" width="80.45" height="70.39" as="geometry" />
        </mxCell>
        <mxCell id="9HRKabhM0mPHnpSKMiT4-16" value="" style="shape=hexagon;perimeter=hexagonPerimeter2;whiteSpace=wrap;html=1;fixedSize=1;fillColor=none;gradientColor=default;strokeColor=#CC6600;strokeWidth=3;opacity=70;" vertex="1" parent="1">
          <mxGeometry x="170.45" y="90" width="80" height="70" as="geometry" />
        </mxCell>
        <mxCell id="9HRKabhM0mPHnpSKMiT4-17" value="" style="shape=hexagon;perimeter=hexagonPerimeter2;whiteSpace=wrap;html=1;fixedSize=1;fillColor=none;gradientColor=default;strokeColor=#CC6600;strokeWidth=3;opacity=70;" vertex="1" parent="1">
          <mxGeometry x="240.45" y="130" width="80" height="70" as="geometry" />
        </mxCell>
        <mxCell id="9HRKabhM0mPHnpSKMiT4-18" value="" style="shape=hexagon;perimeter=hexagonPerimeter2;whiteSpace=wrap;html=1;fixedSize=1;fillColor=none;gradientColor=default;strokeColor=#FFB366;strokeWidth=2;opacity=70;" vertex="1" parent="1">
          <mxGeometry x="450" y="330" width="80" height="70" as="geometry" />
        </mxCell>
        <mxCell id="9HRKabhM0mPHnpSKMiT4-19" value="" style="shape=hexagon;perimeter=hexagonPerimeter2;whiteSpace=wrap;html=1;fixedSize=1;fillColor=none;gradientColor=default;strokeColor=#FFCC99;strokeWidth=2;opacity=70;" vertex="1" parent="1">
          <mxGeometry x="520" y="290" width="80" height="70" as="geometry" />
        </mxCell>
        <mxCell id="9HRKabhM0mPHnpSKMiT4-21" value="" style="shape=hexagon;perimeter=hexagonPerimeter2;whiteSpace=wrap;html=1;fixedSize=1;fillColor=none;gradientColor=default;strokeColor=#FFCC99;strokeWidth=1;opacity=70;" vertex="1" parent="1">
          <mxGeometry x="520" y="210" width="80" height="70" as="geometry" />
        </mxCell>
        <mxCell id="DBni2ND7SN6QVj1qnKWI-12" value="" style="shape=image;verticalLabelPosition=bottom;labelBackgroundColor=default;verticalAlign=top;aspect=fixed;imageAspect=0;image=data:image/png,iVBORw0KGgoAAAANSUhEUgAAAwQAAAFgCAYAAAAFAb6HAAAACXBIWXMAAC4jAAAuIwF4pT92AAA7bElEQVR4nO3dTXbTytqG4Wd/6/SPzwiwRoAZAabhNmYEJCMgtNUINNxOGEHCCDBtNVBGgBiBxAi29gj4GlXeVhzbsaWSqiTd11peCU4svSSOXY/q768/f/4IAAAAwDj9n+8CAAAAAPhDIAAAAABGjEAAAAAAjBiBAAAAABgxAgEAAAAwYgQCAAAAYMQIBAAAAMCIEQgAAACAESMQAAAAACNGIAAAAABGjEAAAAAAjBiBAAAAABgxAgEAAAAwYgQCAAAAYMQIBAAAAMCIEQgAAACAESMQAAAAACNGIAAAAABGjEAAAAAAjBiBAAAAABgxAgEAAAAwYgQCAAAAYMQIBAAAAMCIEQgAAACAESMQAAAAACNGIAAAAABGjEAAAAAAjBiBAAAAABgxAgEAAAAwYgQCAAAAYMQIBAAAAMCIEQgAAACAESMQAAAAACNGIAAAAABGjEAAAAAAjNh/fBcAAADQlShOJpJmkjYfJemFpOkZhykl/bKfF/ZW5qtF1rA8wIu//vz547sGAAAA56I4mcs0+l/KNPjnHZy2sLcHSZmkLF8tig7OC9RGIAAAAL1nr/zPJb22H2f+qnmilAkHD5LSfLVIfRYD7CIQAACAXoriZCZpKemtwgoAp1jLBIQ1PQjwjUAAAAB6w4aA9zJBYOqzFocySV9FOIAnBAIAABC0KE6mMgHgg4YTAg7JRDhAxwgEAAAgSHZS8AeZMDBGa0lf89Vi7bkODByBAAAABCWKkwtJ1xp+b8CpCklfJN3nq0XptxQMEYEAAAB4Z1cJupLpEZj4rCVgpaR7SV8YTgSXCAQAAMAbgkBt95I+EwzgAoEAAAB4YYcG3Ygg0MS9CAZoiEAAAAA6ZScL34k5Aq6UMnMMbpljgDoIBAAAoBN2+dA7mZ2E4V4p6WO+Wtx7rgM9QyAAAACti+Lkk8zKQSFJ7cdC0u/K/YW9HTPf+fdr+3Eq/z0fqUwwyDzXgZ4gEAAAgNbYnYXvJM08lVDIbPb1y35e5KtF2vZJbW9I9fZa3YeFW5n5BWWH50QPEQgAAEArPPQKlDKN/weZq+RZaI1hu6rSTKaH4aX9OGnxlIWkyy5CEPqLQAAAAJzquFcgk/RdUtrXRq/9ec1lehHmaicg3IreAhxAIAAAAM5EcXIl0yswafE0a21DQNHiebyI4mQpEw6WcjvEKJPpLcgcHhMDQCAAAACN2aEwdzKN2DYUMktrrocYAg6xvQfv5TYcfMxXi1tHx8IAEAgAAEAjLQ8Rupf0ta/DgVyyPQdvJV04ONxapregdHAs9ByBAAAA1NbSbsOlTG/A/Zh6A05le2OuZHoOpg0OlYkhRBCBAAAA1NTCKkKl2HH3LDaQfVD93plSJhSs3VSEPiIQAACAs9gr1DdyM3Rl41asglNbFCdzmXA2r3kI5hWMGIEAAACczIaBH3I3XyCVuUJdODreqNlgcKN6v5/7fLW4dFoQeoFAAAAATuJ48nAmc1U6dXAs7LBDia51/hyDtZhsPDoEAgAA8CwbBn6o+eThUmZo0G3D4+AZlcnH587zyCS9IRSMB4EAAAAc5TAMrMXV585FcTKV6dmZn/GwTISC0SAQAACAgxyFgVKsZONdjV2kMxEKRoFAAAAA9rIbYd2pWRhIJb2jURkG21vwTafPA8lEKBg8AgEAAHjCrlbzo+FhPuerxafm1cC1KE5uZOYXnCIToWDQCAQAAOARB8OESjFEKHhn9gBlIhQM1v/5LgAAAITDQRjIZBqOazcVoS32d/RG5nf2nJnM/gYYIHoIAACAJCdhIBXzBXrnzM3m2LxsgAgEAADARRigodhjNhTcSLo44dsv89Xivs160C0CAQAAI3fmFeJ9CAMDEcXJnU4LBW/YZXo4mEMAAMCIOQgDnwkDw2F/l/cnfOs3u4QpBoBAAADAuN2pfhi4ZFnR4TkxFExkQsGk7XrQPgIBAAAjZdeiX9Z8OOPIB8yGgvUz3zYTKw8NAoEAAIARiuLkQqdvTLXrI2FgFC71/JKkF3Y/A/QYk4oBAOgxO457Wrlrou0QoExmk7CNMl8tMrui0M+ap2QC8YjYIUG5jq8+VUp6la8WRfsVoQ0EAgAAeiCKk7lMQ/+lTACYqf4SoXURBkboxACZ5qvFmw7KQQsIBAAABMgGgLeS5qo/6dclGnwjFsXJlZ6fL/AxXy1u268GrhEIAAAIhB2L/VZmou/EZy07Mpl150vPdcCjKE6+6fgk9FIMHeql//guAACAMbPDMT4ovBCwUUp6RxiAzCTjuQ4/TycyvQjvuikHrtBDAACAB3aVn/cyDayQvcpXi8x3EQiD7cX69sy3sYtxzxAIAADokA0C13q8MlCo2GsAT0Rx8kPHg2yRrxZRR+XAAfYhAACgA1GczKM4yWV2Bp56LucU94QBHPDcSlNTOwkZPUEPAQAALbL7BNwp/KFBVZmYRIwjojj5JNPTdUgpKeI51A/0EAAA0BLbaMrVrzBQygwVKj3XgbDd6vGmd7smqr8TNjpGDwEAAI7ZlYPu1O3+AZm9/ZaUyu5KfOibKzscz2Q2O5vbf7OWPE5CL8FwEAgAAHDIjp2+VvtLiBYyDf/vMpuGlU0PGMXJjBWFcKooTiYyPWCTI9/2OV8tPnVRD+ojEAAA4IBtHN3p+MZNTZWS1pK+0HBHCKI4udHxoUFlvlr8r6NyUBOBAACAhuzwm29qb4hQJhMC7ls6PlCLfe7nz3wby9cGjknFAAA0YOcL/FQ7YSCVWe3nFQ0qhChfLQqZXqtjPrRfCZogEAAAUJPdZOyH3M8XSGWCADu+og++PvP1WRQn8y4KQT0MGQIAoAYbBu4cH7aQWeVn7fi4aIHtHZrI9A5NJL3Q403n5mccrpQZGraRSfqnen/I4TCKk791PBjf56vFcxuawRMCAQAAZ2opDLAaS6DshPG5tku0zuRvt+lSJiAU2i4xW9ihO95EcXIn6eLItzC5OGAEAgAAztBCGMhkJl1mDo+JBuxE2bmk19ruzxC6Uua59GA/Zl2GhChOljIT6495R+9XmAgEAACcyI6D/uHwkPQKBMIO/1lKeqtuN5RrUyHTg/Ags1dF0ebJojh5rlHJsKFAEQgAADiBbTC6mkBcylwtTR0cCzXZnoClzCo4U5+1dKSQ483sqqI4+abj+3AwbChQBAIAAJ5x4o6sp8pkwkDh4FiowQ5vea92N5Hrg7VM78HaxfMxipNPMrt0H8PKWQH6j+8CAADoAVc9A/cyqwiVDo6FM9n5H9caR2/AKZb2dhPFSSazfOh9g+dnqucDwVv7fQgIPQQAABwRxcmNpCsHh2L8tCcEgbOtJX2vsxneCfMI0ny1eFOnKLSHQAAAwAEnrpxyCsKAB3YS+I2GM0m4a6VMr9aXU4cURXHy7K7d+WrxV8O64BiBAACAPRzOGyAMdMz+7u7EHAGXUplVsdJj33TCxGKJeQTB+T/fBQAAEKg7EQZ6x/bq5CIMuDaX9COKk9wOwTrk1wnHmrkoCO4QCAAA2GEblcuGhyEMdCiKk4ndLfeb3EwAx35TSXdHgkF2wjFeuCwIzREIAACoqAw3aSIlDHSnskfEhd9KRmWq/cGgPOGxsxbqQQMsOwoAwGPXanaFuZD0zkkleJadOEyvgD9TmWDwXtJnmef/KY9BQAgEAABYdufaqwaHKGU2HSsdlINn2CvTTXtz4Mbc3u5P+N5pi3WgBoYMAQCw9dymSs/5nK8WmYtCcBxhIFgXvgvA+Vh2FAAA/ds7kDc4BBsudYQwMAivCM/hoIcAAACjSe9AKYlJxB0gDAzGxHcB2CIQAABGz/YOXDQ4xOdTd3JFfXY1oRvfdQBDQyAAAKBZ70CWrxa3rgrBfnY52B/iyjLgHIEAADBqtqG5bHCIj24qwTNYWhRoCcuOAgDGbqn6Dc00Xy1SZ5X0gB1eVb1JZufZ6b7v31FK+mU/zySVp/z8ojj5JLOkJYbjQxQnGUv0hoFVhgAAoxbFyU/V3zn1zVADgR2vP5X52byWCU2zlk5XyASEB5mQle3U8bOl88KvTGbfjsJzHaNHIAAAjFbDpUazfLV45bAcb+ywqZnMVfjX9vOJr3pkehLWkr7LzO+YeawF7SplgnXmuY5RY8gQAGDMlg0e+8VVET7YK+9LSW8VXoN7IrPq04XXKtCFiaQfUZwQCjyihwAAMFoNhguV+WrxP8fltC6Kk6VMAFiKCboISyl6CryhhwAAMEqVYTJ1rJ0V0rJKCLjwW8moZDIN3EzSPzJzJIrNFw/NO6lM2N6YyQS3zaTtzb+HaCLTUxAx0bh7BAIAwFjNGzz2u6si2mCHA30QPQFdyCSlMqsnZU2ucNvJtUXlrnT3eypBdibppczzeFr3nIGZaDt8qPRcy6gQCAAAY/W65uPKfLVYuyzEhcp+Ch8U3pyAISlkeog2KyKVXZ7cni9VJSzYnoW5zHN6qX6HwJnMbtSXnusYFeYQAABGqcH8gXW+WrxzXE5ttjH4QWZI0MRnLQNWyISAr30Y4257iN7LhIOpz1oauMxXi3vfRYwFgQAAMEpRnNR9A/ycrxafXNZShw0C12JuQJvWMiFg7bmO2qI4mcuEgwu/lZytlPSKPQq6wZAhAMDo2CuodaWOyqiFINCJe5ngV3iuozE7gTmN4uSjpCuZcDD1WNKpJpK+SRrEXh+ho4cAADA6duWdbzUf/j8fEx4JAp2410CCwDFRnFzIPJemfis5ycd8tbj1XcTQEQgAAKMTxcknmQbRuTrff8BOFr6WubqLdhQyY9ZTz3V0KoqTK5nn1sRvJUeVYuhQ6/7PdwEAAPRI1uXJbIMtF2GgbVOZ5S5/RHHyqeGQst6wV94jSbd+KzlqIrPqEFpEDwEAYHSiOPmhevsQpPlq8cZxOU/YBumdWD7Up1JmUvH3Pk8qPlUPnnNvxtaD0yUmFQMAcLqizYMzPCgoE5n5GhdRnJTarjiUequoRXY51VdRnNwozOfftTxP6B8yhgwBAHC6320d2F6h/akwG2NjN5EJBz+iOMmjOLmy4W1w8tXio6Q3Mj0kIZnbJVTRAgIBAACe2UnOP9WPVV/Gbiozpj2P4uTOrv40KLYX5JU6njNzgjoLAeAEBAIAADyJ4mRi5zPQ0OmfiUyvwSCDgV3V543CCgX0ErSEQAAAwOleuzqQHSKUq97kZoTlQgMMBvlqUearxSuZ/RlCQXhuAYEAAICO2Y2hfirs9d9xvgsNMxhcKpxQMB/LsrBdIhAAAHC6adMD2FVc7pqXgoBdSPpp9zSYeK7FlY8KZ/jQB98FDA2BAAAwRlnNx02bnDSKkzuxitBYTGSGt/wcwrj3fLUoFc6cguWAglYQCAQAgDH6p+4D6w5XsGHgou550VtTmeVKv/W9EWtDwaX8L0k6kbT0XMOgEAgAAGOUNXjs7NwHEAYg04DNozi58lxHI3YDs4++65D03ncBQ0IgAACMUdbgsWetNEQYQMVE0k3fewvy1eJeZudmn+ZDmrjtG4EAADA6do31subD56d+I2EAByxleguWnutoIoShQ0vP5x8MAgEAYKzSmo+bnjKPwK4mdFHzHBi+iaRvUZzc9LG3wM4n8D10yNm+IGNHIAAAjNVDg8ceHb9s9xm4anB8jMeVzKTjmec6zmaHDhUeS2C1IUcIBACAsVo3eOzy0Bdsw+6mwbExPjOZULD0XEcdvnsJ5p7PPwgEAgDAKNl5BFnNh0/3rS1vr1Z+EzsQ43wTmSFEnzzXcZZ8tVjLby8Bw4YcIBAAAMbsa4PH7tst9UYOdjPGqF33cBWizx7PPfd47sH468+fP75rAADAC9vo+rvJIWxPg+xwj2/NqwpWKdOjUkr6Vbk/PeGx88rnL2Wuhk9UY0+HEckkvds8v0IXxcnf8tQzlq8Wf/k475AQCAAAo9ZwadD7fLW4tMHip4bRO1DKNEYf7McyXy3Stk5m15KfyoSGFzIhYdbW+XqmlPTGbgYWNM9L7L5p8zk6BgQCAMCo2QZp3uQQMg2haxf1eFDIXOV/kJSGckXaztGYyYwRn2u88zJKSZd2rH6w7GT6n55O/zFfLW49nXsQCAQAgNFreHUzU/+uaGcy8yfSPlx9lv5tcM4lvdU4x41f2mU+g+Vx2NB9vlpcejjvYBAIAACjZ4f85Br2VehCJgTch9ILUJf9fS1lwsHSZy0dCzoUeBw2lOarxRsP5x0MAgEAAJKiOLnSMPcPuJf0dahjrCvh4L3G0XNwm68Wvtf+38tuyHfn49xMLG6GQAAAgBXFyQ8No1FZSvqiAfQGnMPOB/kgc5V64rOWlgU5RMbnPAICQTMEAgAALNug/Kn+NiZLmSBwm68Wpd9S/LJXqz+of/M7ThVqKPDVsHzVl/kwIWJjMgAALHs1/Z3vOmooZTaHivLV4tPYw4Ak5avFfb5avJL0RqftldA3F3bMfmhST+edeDrvIBAIAACosGPtg7vyesS9zNVRgsAe+WqxmXA6xGAQYigofBeA8xEIAADYYVdyCT0UFDIbMl2OaZ5AXQMOBhdRnIQ0Gf63p/NOPJ13EJhDAADAAT5XTXnG53y1+OS7iD6L4mQps6rU1G8lznS6JKmdQDyVmaPxUqZBPpW/nyd/Ew0QCAAAOCKwUFDINPxSz3UMRhQnn2QmH0/8VuJEa6HA7hw913bn6NAQCBogEAAA8AzbGPomv43GtUyDr/RYwyDZ1aXuFGZD91zv8tVi7eJAthdls/nbxMUxW0QgaIBAAADACTz3FHzMV4tbT+ceDfs7vlH4jd9jSpm5JVmdB/d4Lwf+RhogEAAAcIIoTr7JXCntUinTK7Du+LyjNZDeglJm5ani1AfY3oAP6vf/u9N5FENCIAAA4Bm2kZh3fNpSDa70opkoTq5kegv6KpN5/pTHvsn2ilyLydWjxrKjAAA8b9nx+TIRBryyw09eqb/r6s9k5r08EcXJJIqTT1Gc/C3TGzLtsK623dkVkHAGeggAAHhGFCc/ZRpYXch0wpVddCOKk4lMw3rut5LabvPV4qPU6/kB5ypFoD4LgQAAgCM6Hi6UiTAQJLv515XvOmr6KLNXwIXnOrpUilBwMoYMAQBw3LKj82QiDATLXmUPfffqQ240rjAgmR6QO9vDg2cQCAAAOO51B+coxR4DwbOTVd/I/L4QvpmkH76L6AMCAQAAxy1bPn4phjb0ht0lmlDQH7MoTkLZaTxYBAIAAA6wOxS37R1hoF/s7+uN+rsC0dhc2GVkcQCTigEAOCCKk08ya7S3hTXTe8yOT/+h7lag8q2UmetSSPpt70v3fN9MZgz/C5klTTf/9u2N7eHBDgIBAAAHRHHyQ+0tN/nvcpDor4GHgkymwf8gKTtn5+Nddm+AmaS36n5fj41SZ+7gPBYEAgAADojipK03yTRfLd60dGx0zC5N+1NhXAVvopS0lvRd5jlatnESG6KWkt6r+/0dsny1eNXxOYNHIAAAYA97RfNnC4cuJUWsKDQs9vnyQ/0MBfeSvuerxbrrE9swda1ul0Wld24HgQAAgD2iOLmQ1MbqJIxjHqiehYJSZsOydQjh1AaDG3U3nIi/wwpWGQIAYL+XLRzzM42Q4bKrD/XlyvNEUhFCGJCkfLUo8tXinbpbvekbm5ZtEQgAANhv5vh4Wb5afHJ8TATGrhrVl1AQ3E6+NjC/khnG1KaJ2ukB7CUCAQAA+80cH+/S8fEQqHy1uFX7DVoXpmp3Wd1a8tWizFeLS7X/N7OM4mTZ8jl6gUAAAMB+E4fH+szmY6PzUWbZztBddbQB39lsb8srtbsrdHC9JD4QCAAA2OG4gVQwVGh87Nj8S7XbmHXlxncBh3SwK/REAfaSdI1AAABAuxgqNFI9mmQ8i+LkyncRh9if4yu11+MSbC9JVwgEAAA8NXd0nJRVhcbNDntZey7jFNchD52xPS5t9hSMupeAQAAAQHvoHYDUj6FDE0lXnms4yoaCd2rnZzm3e4+MEoEAAICnXjg4xn2+WhQOjoOeq8wnCN213SAsWJU5BW0IupekTQQCAACemjo4xmcHx8BA5KvFWlLquYxTBD90xoaCNgLWVIH3krSFQAAAgHv0DmCfPvQSXITeSyD9OzfjvoVDfxhjLwGBAAAA9774LgDhsSGxDz1HH3wXcKKPcj/JeKIR9hIQCAAAeGrS4LEpm5DhiFuFP8H4og9XySuTjF0bXS8BgQAAgKdmDR771VURGB7biA19b4KJpAvPNZzEhm/XvS4TjayXgEAAAIA7pfqx5jw8suPfC89lPKcvw4Yk0+tSOD5mn/7/jREIAABwZ22vAAPPCX0uwbQvu/e2tKzrZEz7EhAIAABw57vvAtAPPekleO+7gFPZHcFTx4cdTS8BgQAAADdKu9Y8cKrQV6Na+i7gTK57CWZRnMwcHzNIBAIAAJ4qajwmdVxD0KI4+eS7hgG4V9grDvVq2Ixd1vXe8WFH0UtAIAAA4KmixmMeXBcRuOsoTm58F9Fnduz7vecynvPWdwFncj03YzmGJUgJBAAAuJH6LsCDqz5dQQ5U6MOG5r4LOEcLvQQT9W/o1NkIBAAANFeOaTOynXHVN1GcTD2V0nu2AZt6LuOYSRQnS99FnMl1L0HfeknO9h/fBQBAiGwX8Uzm6tDM3v1C0vTEQ5SSflU+z6R/V8JA+DKdd2U0a6WKcE12Pr+T9MZLJcPwVWFfiX+tHu2vka8WRRQn93K3udoyipPJkJcUJhAAGD17dXMu6aVM43+mxw2eupZ7ziVtA0Ih6bfM1cFsyG82PfTPmd+ftVFEwGY7/55HcXJhl9LE+dYyoSpUc98F1PBVbndbXir8+R61EQgAjE4lALy1HycdlzDR4zfYa0mK4qSQaVj+kpTSm+BVceb3/26jiIC92HPftQbcYGpTvlqUUZysFe5Y9VnfrpDnq0UaxUmmp+G1rtca8PObQABgFGwIWMpstDPzWcsRU3tbyqzgIpnegwcRELpWnPn9WQs1hGy2574pvQSNfFe4gUAyFzHWnms41xe563lZyv0+B8EgEAAYLDsPYCkTAuY+a2lgbm+bgLCWCQhrOxkR7cjO/P6yhRpCNj9wP70E9a0V9rChmfoXCNaSbuSmF3gSxclsqIsH/PXnzx/fNQCAU7Y34EJmQ5mJz1paVsi84X0d6puUT1Gc5DpxEnm+WvzVbjXhsCsM/TzyLW/ozaonipOfCrcHM81Xi95NHI/i5E7u5hJ8zFeLW0fHCgo9BAAGwwaBa7mdSBayqaQrmbXgCxEOXMt0+qpSYzJ/5uvvFfYymiH7rnADwcx3ATV9l7v3hNeSbh0dKyjsQwCg96I4mdirQLnGEwZ2TWXCwc8oTvIoTm521orH+X49/y2j9PqZry+7KGKgUt8FHDHp4469+WqxlrshfXNHxwkOgQBAr0Vx8knjDgL7TLUNBz+jOLnq4xt5AFLfBQRq+czX+7iRVRB6MNRq5ruAmtaOjjMZ6oUWAgGAXoriZG7HeF9r2PMEmprJTKr7O4qTbzTUTmcbZ+UJ35q2WkhAznj+PNeLgMMy3wUcMfVdQE3fHR5r5vBYwSAQAOgVOzzoRtIP9ffNyZelpG92SNEneg1Okp7wPbOWawjJ2xO/b95mEQOX+S7giKnvAupwPGxo6ug4QSEQAOiNKE7mMqubXPmtpPemMj0rf0dxcmd/rtjvlCuLk7aLCEFlGd9TzForZPhCnruyb0O6vkgdHWeQvV8EAgC9YOcK0Cvg3oWkH3auwYXnWoJjN9kqPZcRiqXOCD8Ezdoy3wUcMfVdQAOuhg1NHR0nKCw7CiBo9qrkNzEEoW0zSXd2ONYXSbf5alF6rSgcazFpXTK9SueYtFHECGS+Cxio1NFxpo6OExR6CAAEy67m8EOEgS5NZBp+uR1ONPVbThA+P/cNQ/852av90zMfNnNeyAgEHsRnvguoy+7snrk41hBXGqKHAECQKmFg0tEpS5k3i0LSb/ux2HztlM2+bM0T+8+Jtm+eL+2/p+rP1aWJzFXxiyhO7mU2PEs91uNNvloUUZykOh5Mp9o+X4bo3N4BSfqv8yrGI1OYje+J7wIaSuXm5zpxcIygEAgABMeOZb9r+TSppAf7MXNxVW5PaFjv+75KcJjLTNKbKuxekAuZYJBK+jzSYPBZx39Hk27K6J5danRe46Ezp4WMS+m7gIFyNWF76ug4wSAQAAhKi2GgkGmgf/fdoK0Eh7R6vx12MrO31/bjpKOyTjGXNB9jMMhXi9T2lFwc+JaZ3G1+FJob3wWMUOG7gIFKHR1n6ug4wSAQAAhGC2GglHQvM9wlc3jcVtgxroUqDctKSHgt0yCfdVzWPnNtg8FXuxLPGHzU4ZV2XnZaSUfs6l5Tz2WM0W/fBQyRHf5XKqwLLUEgEAAIguMwUMhcwb53dDxvDoSEuUyjfBMSfJnLBINrDeTnfUy+WpRRnFzKrHq1a9pxOa2zQ9vqzB0AQpbq9P00RoNAAMA7h2Gg0DgapqkqXd82ILyVvx6EqcySpYMPBvlqsT4wdGjWeTEtssv9tj2PB/Dhl5oHgsH1CLLsKACv7ITFpg2PUtJlvlpEQ26MHpKvFmm+WnzMV4tXkv4n6VJmqFTZcSlTmWCQD3mTs3y1uNSe+QID24jrRgMLOYCVOTjGxMExgkIPAQBv7JCEpmHgVuaqdNm0niGwP4d7e7u0P+OlTA/CrKMyphp+j8Gl/bis3DeTu0mL3kRxciU3G7EVDo4BuFb4LiBE9BAA8MJOlm2yz0Ah6Y29Ml66qWp48tUiy1eLT7b3IJJpyK47Ov1UA+0xyFeLMl8t3skEr40Xnspxxv6eXK0qxMRYBKcPC0z4QCAA0Dk7Pvmb6oeBtaRXY1r20oV8tSjy1eLeNmS7HFo01XCDwaWkdzI/w5nXYhpqYZWvwuGxEIbCdwGOZL4LCA1DhgD40GR88ud8tfjkrpRx2jO0aCkzrGip9sbHTrUdSvRV0u0QenfsRONUPV65pKX9PwrHx4N/he8CHCl9FxAaAgGATjUcn3w50PHo3uWrxVqm56WLcDCVWc7yQxQna5mQV7Rwns5UAlbvtLUZID14CNiDwt4dvnMEAgCdsRNc64xPLiV9JAx0o8NwMJEJhxdRnGSSvktaM8a3O1Gc3MnNBOJdWQvHhH+F7wICUfguwDUCAYBOVOYN1HFpG6no2CYcRHGy2aV3Ew5cm9nbdRQnhUwg6cUO031kJ/V/U3vzHtKWjjsWoa5zP5SJ4kXDxw/l5/AvAgEwYraRPrO3icyb0GTn20qZjVwKSVmDBtqN6u3mShgIQHXOgX3eLCV9UDsNyqmkK0lXhAP37LC9a7W7lvpDi8ceg4nvAg4ofBfgSOG7gNAQCICRsUNAXss06KYnPmxZeXwpc/Xv+6lDeOw5L048VxVzBgK0Ew6mMr/b96oX+J4z1dNw8EBIPF9lyN685VOV/H4am/gu4IDCdwFox19//vzxXQOAltmGwAe5HwdeSvqiI6vF2KvJeY3z3tslHdETLT7PDlnLzDtI+z4puU02tF2rnbkC+/C321AUJ6E2zv43hJXB7K7iPxoc4t3QQi+BABgw+6J3rQ6uCEr6sm850ChOvun8MeeZ3UgLPWV7hd6ru6U4C9neA5mAUHZ03mB5CAIbrxjeVZ/9veW+69ijzFeL//kuwgUHgeDN0FbRYsgQMEAdBoGNicxk0LcyV06KSh3LM49Vymz0hB6rTEaeaDukaNbiKaeyQ4skya5alGqEAcFDGKtKCQONTX0XcEDmu4CAFL4LcI1AAAyIbXxdyzaKPJhJ+hnFyaVMY6zO2ua9X5MeW7Yhfivp1g4pei8TECYtn3pmb1fSvwEhkwkITSbHB6nys13Kb4Pys8dzD8XcdwEHDGmi+LzJg4f4HkUgAAbCNgi+yf/VpYlMHanOryXNV4tbt+UgFLYRnkn66OEq9szeLiQpihPJPEczmVW0ehUSbPifyywDO5f/v3vJ/P2mvosYgFCXHM18FxCIwncBbSAQAAPQ1k6jDc1rPIaJiCPhYUjRPnNVnqc2JGQyb/i/7OdlCI1cG/hnMo3Fubr/WZ2C3gE3Zr4LOCDzXYBDrxs8tnBVREgIBEDPRXFyI39DhFxiqNAI7RlS1OUqRfvM7G25ucMGBWm72dZm6EShbeOgaPL8tRNJp/afc/vxtczPYVb3uB26DSE49d3O8yAkjZ7fAZo0eOyQhk79i0AA9FgUJ3fqfgWRNpQyjUKMmB2ycynp0vZ6tbUrcl3znY+PVILDRibz3N5npnDXmj9XIXoHXJn7LuCA1HcBjs0aPLZwVENQCARAT9kG04XnMlz5MqZVYPA8uyHdZuOzpUzPwdRfRbXMfBfQkXf8/TrTZChLmwZzVdz2RDaROSgjOAQCoIfscp6hzRmoqxS9AzjADlO4VThDivDYZZ8mY/fA0ncBB6x9F+DQrMmDh/p8JxAAPWMnYbYdBgp7yyT9s/O1/2o73GHm4Fz0DuAkPRhSNDb3ticHDtjAO/Fcxj7ZwF6jm6zilLoqIjQEAqB/ruR+6EShmru8VlY/ea3zlz8sRe8AaqgMKZrI3ypFY3afrxasCubWe98FHPDVdwGOzRo8djBDp3YRCIAeseOprx0e8l7S1yarg1TWlr+Xzt4gaT2wK0/o2IGNz5bq33yDPiEMtGPpu4AD1r4LcGze4LGZoxqCQyAA+uXC0XHu1dIyn2duPvXF9fkxXjvPvZmYb9CGS4YJuWdfK6eey9gnG9Jyo3b+XROpgzKCRCAA9qi8aEy0v3txM44+09Mx9tLj9cldjr9s2qWcSfrY1Xrhlc2npjI9GxfVWoY6OQv+7cw3WGo732Dirah+K2VWE0o91zFUb30XcMDQhgvNGzz2rOG0ffPXnz9/fNcAeGEbqTNtd/+cqN01oIvK7bfsjqinNoptvXmD89/mq8XHBo9vbCcYfMxXi1uf9WB8CAe1rGV6BkrPdQySg9f2NkUD6yH4ofrv85/z1eKTu2rCQg8BRsNe9Z/LTH6dqfvGwFR7uoTtZkaZvf2SuXKeHnh8HaVM4/u+5uOdsW8sl1GcfNWAx2IiXJteK5nn4Uym120uJiTvU8oEgbXnOobuwncBB6wHFgYmanbRb+2kkEDRQ4DBsn/8S5mrgXP172pgKtNofrCfX+n8CcWlpDcMzQGOs1dp5+rv64VLpcz8nlt6Bdpl36dyhfl8ezekMGh7B7/VfHiRrxaRw3KCQw8BBmUnBCx91uLA3N6u7L/LMx9fijAAnMReCb3X49Wy5toupzvxUFbXShEEunalMJ9bxZDCgNVknkbqqohQEQgwCHY40HuF2/XqwuTM7ycMADVVViy6lZ4EhJnCXBGmrkwmCLAMcIfsBawPvus4YIgrwC0bPPa7qyJCRSBAr9ndSj+I8b+7LgkDgDt7AsJU20UJfM1LaiKTuer5ZUjjxHvmSmE+Z0rZnrKhsMOFJjUfXg6wt+QJAgF6yQaBaw3rKp0rtyFMIAaGzDaiC1UmGu5ZuWzz7xAUMgFgsxt54bOYsbPPlVB7B+4H2FPUZLjQvasiQkYgQK/YlH8jgsAhme+lRYGx2hcSpH8bf1NtexE2yxxv7neplF3SWGZ541Ru90KBG9cKs3dAYrjQrqHtxbAXqwyhF+z43Ru1u0/AIanMm+yvyr+fM7cfX+hxQ6BNpaRXXPkD+se+xk0qd+3+e1epx0v3Fvzt94Od8/bDdx0H3OerxaXvIlxidaHT0EOAoNlJV1c6f7nNulKZLvVMzbZsT3fvsP+XmUxYeCn3ExMZCxywylXifSZyP7Sk0Ha37H24ahyQPXN+Ug9loGX2feDOdx0HlJI++y6iBe8bPHaIvSV70UOAYNkrZt/U7vCgUqZ7/7s8bEtuG4lLmUmJywaHGs1VDJ/slb2N6uebnqCNqfo5rK3U0w3jHo58nVABnCGKkxttl5IOzeB24rUB7O8Gh/jfWF7jCAQIUhQnn9Rur8C9pO+hrRxguzY3eyhMznjomwO7G+MElYb+TObnXm3gb+7DcZm2e2Vkkv6xn6f2I0NaMGoNh660rZQUDa3x27AtMbjhU8cQCBCUSnfqsoXDl+rJpjuVDdbe6/l5E2m+WrxpuaReqzT455L+q20jf+ajHvwbEjKZ4FDYW8lyuRgi2xv8U+FeXPiYrxa3votwLYqTXPV7a0d1oY1AgGDYIUJ3amcs9ee+LsVp30iudbjXYFQvWodUxujPtW30zxTuGzAOK7XtcfhV/TeBAX1jL/D8ULgXILJ8tXjluwjXGvbIjO5CG5OKEQQbBn7IbeOtlAkCtw6P2Tk7zOIyipOPMmNPP2j7c0rHFgZ2Gv4vKp+HotR2nH0hs/RjVXricWZ6+vfw+pmvD8VE29/psvqFKE6kbY9CIfPzzWTCQtpBbcC5bhRuGJCkoS5V3WSfh1EsNVpFDwG8aykM3MqEgdLhMYNQWXnpg8yOxGuf9bTJPjdmMo3+kHaDTbXTGJWnCbaV1aukbSP69c6/x6Swt0xmOFIq5i/AkyhO7iRd+K7jiNsh7l3TcGnXUS7SQSCAVy2EgUymkZw5Ol6wojiZDCnw7Ozy+lphNGYLmefUL/W0YVkJDFNtg9XmvrFJ9XjDrt79PtEfga8oJJm/hVdDeh/ZaBjELvs6xLgJAgG8aSEMDG7JtCGzv/+5tlf+p/6q+Vcm01D8JTMcq/BZTNvs72Aq8/N/Wfl8bFKxsy8ciuLkSmaoUMgGOf/MXlzKaz58lL0DEoEAntirlrnchIFS0rshvrANie3CnSucq//Sdh+KB40gAJzK/q6m2m6gN1MYQ7W6VMoExAfZnqIx9DyiuR4ME5IGOlRIonegLgIBvIji5KfcXIlMZcJA6eBYcMhefV4qrAAgmcbdWtJXGnin2xnS1cZO232RyjyHfsmEhNRnMQhLT8JAJtM7UHquwzl6B+ojEKBzDsdVjmrTkNDZF+K5zMZqc4V1RbkQIcC5yvyEucYdEjJt55oQEkaoB0uLbpQyYSDzXEcrojj5ofoXoEbbOyARCNCxhjP/q0b9hxsK+/vc7Kw89VnLAfcKcEfqISMk/CvV45CQ+SwG7Wlppby2DPa9s2H7YpB7MZyDQIBONdw1cGOwL2ihq+yg/FqHN0rzrZDZkfp+iF3ifbRnBamZwnzutKnUdk5CKiYuD0IUJ59kNo7sg0H3qjccijzICdbnIBCgMw5eOEsxebhzlRCw6QkIVSrpC70B/VDZY+KlTG/CzF813hQyz9sH0YvQK/b5e6f+PG8HfQU8ipMLmd9HHet8tXjnsJxeIhCgEw5WFSo14HGPoelRCJDMsKCvBMX+s13+M4W1FG2XSlV6EXhOh6eyMWRfegWkAU8ilpy0LyJWmCMQoCMN07tEd17rehYCJBMEPvNCPlz2OTlXWJvVdS3V45BQ+ixmzOzeAtfq13C3UgO/mNZwoRL2L7IIBOhEw7F9zBloURQnS5kQcOG3kpOlMs+JwnMd8KCyoV11j4QxybQNCAwzapkNpReSPqh/PValhh8G5qo/kbjQQHdqroNAgFZUVhqZSXqh+un9Ml8t7u0f/cZUT1+YX+y5r65CZsfSqlLmTfjff/f5RdY2qt7LvNFNfNZyhlTmak7quQ4EZGdVozFOWC5lXpsKbXda7vXrUwjsRPgP6tdr5K5XQ34e2L/9n6r/3s/IgwoCAWqzL5hTbd+AX9svzX3U41la+fzBfizsTSG86FSGBH1Qv66qlpI+0kuEU1UmLG8CwsxfNV4VldvvyuescLSHfU9bylwsmfmsxYHB96w3HCrEROIdBAIcVbn6NrW3lzKN/7mfinov0/aK3j/Vf7f1Bm0bRx8U7jKhx9zK9AqUnutAj+3pRZj7qyYohR4HhlLbntBBh4ad97ahrXQ1hjAwV/2hQqXMROLSVT1DQCCApCdX+19oe1Vt4qei0UplXqx+yYaFur0LdiJ333oDNjKZN7XMcx0YqJ25CHP1b3x4V0ptQ0Kh7XDKwt4khdELulFp7Evbi1n/1fY9bbb7mIEoNYLeVAdDhd6xPPVTBIKR2TO2fyaulvVBYW8PsuOF9zWWbbC7kAkCk25Kc45VH9A5VjRyLt1zX6Gn87Pq2DdnbKb+vua5UGrgE4g3ojj5pvor4TFU6AACwYBVxtFONc7JdmOQygSEXzK/4wuPtTSViV4BBIReBPREqfGEgStJNzUfXohVhQ4iEAxEZUOflzJvWnN/1QBnu81Xi4++iwCOoRcBAco04E3HqmxA/9ngEKwqdASBoIdYhxsDUsqM50w91wHUQi8CPFrL9KqWnutonYPdiBmK+gwCQeDsmPC5to3/ub9qAKcymTBQeK4DcIZeBHRkNA1c+zf1Q/Uvfqb5avHGWUED9R/fBeAxO/Rnru3Vpom/aoDW3OerxaXvIgDX7NXatb1JohcBTpUaX6/qjeqHgVISk4hPQA+BR1xJwkgNfo1s4Bh2V0ZNqUwYKD3X0ZmGm49JA9+t2SUCQYcqAWDT+J/5qwboXKmRrIQBnGtneOhcvD9gq5QZInTruY5O2b107hocgotPZyAQtGhEAaDUduOa6n2/zvj+Nk10/Gf/usZjcJ5MLCkKnGVn9bi5GGo0RqnMa2fhuY5OOQgDDEs9E4HAscocgLfqX4Oy0HbnyULbDWRKPW7AF2N7cZL+HQc8qdw11eM36JeVr+9+bezuJX0hEAD17Qw1Yp7ZsJUaYa+A5CQMMIm4BgJBQ7abdylzlXnps5YjMpkXl0LbRn5qP46ycd+lypu49Ljn4b+Vz6caR4AoZZ57v2RetFOfxQB9Z9+DZtrORZuJkNB395I+jmmuwIaDMJBpJPsyuEYgqCGKk6W2AWDqsxYrtR8fqv+msdVPtpdJehwSXu+5bygye/st89wlpAIN7AkJc3/V4AypTBDIPNfhhYMwUEqKCAP1EAhOUJns9Vb+egFSba/wZ7LDeHjij9NOr8PcftwMWZqp/1cISz0OCpl4vgO12SGPM5kLCvQkhCWVGR6Ueq7DG0dhgEUrGiAQHFBZN/q9upsLUNjbgyoNIhpBqMMG2ertxc6/+yrVTjge8xspUBfDjbxLNfIgIBEGQkEgqLAh4L3aHwpUaufq59hfENC9SmCYyTQCNj0Mcz8VNVbYWybpH5k325I3CeB0eyYuT9W/BTJCt5ZZZCH1XId3DvYZKEUYcGL0gaCDEFDINFB+aXvFv2jhPIAzlUbB5uOmd2FzX9+UMn9/hRh2B5zNzm2ayoSEmfr7WuBLqe1qa4XXSgJg32NuJF00OEwpwoAzowwELYaAUpUVVERjAwNlGwcTPQ4Lc1/1OJDJ/P0yMf8MO3NZ/sXPbRx2ehOG8DrQhrWk72yQtWWfNz/UrOepFGHAqdEEAjs84kImCEwdHTaVaUg8iCv/QLWBMNV28uLmvj5L7cdNYMjU0x6GyipW0uPG26ZBpwNfd6nQds+TjYcDX+/dz3jsKsMR5xpnUFhL+i5pzXP3MXtB9oea9S6VIgw4N+hAYBsnF3IzMbgU66cDtR1oJMw0jGEHReX2W4838+ukQbtnmJe0Xa52c3+flar8TGXmiWTqaTAbo8pzdCbzfBzKBYNCpn3wXaZ9UPosJlRRnFzJDBNqohRhoBWDDAR2n4DNkKC6Spk/8AeZP/CsYVkA9jjQq7D5fEgKba96P+y579lG7U6o2mxsN1H/G1SuZNoO/SrFSm29sWeRg02Ynfuo5xmZHl8gLHwWEzr7Gn+n5su2Z5Le8fNux2ACgX0x+SDTIzCpcYhSBAAgKLZ7eSrTSBjTiieltlfDJRr9TZViX4teqwx123zcrIo2VXsXD1L78UE2vDM64Dz293an5r+jVCYMlA2PgwN6Hwjs+rXvVe8qQqptF1/mrCgArWKMMhwpVZkHJuaC9drO/JiZTr84WKoSwGn0uxHFySdJ1w4OdZ+vFpcOjoMjehkIGvQGFDKTfR7y1WLttioAvu2MUX6hx0ORgFOUIiQAtdme3Tu56dW8ZIWmbvQqENj0/0HnjUNby7ywr3lRB8arso76VOMafoTmSrGoBHCUvSBzrWYbjW2UYvJwp4IPBPYJtpR5kk1PeEip7ZJfzPYHcNSBibqb+4BDMjGxFJD072IuN3LzupmK+QKdCzYQVPYN+KDnhwUV2m7+kbZXFYAxsV3fExEW8LxCjwNC5rMYoAu2rXYnd3O4PuerxSdHx8IZggsE9sl1ree3sy5kQsBXXngBdK3Ss7C5bSY3T8RQJLByHQbMjt640fNttVMVMvMFUkfHw5mCCQR2fO97HX9yFSIEAOiJyqonU217FXZ3BJ6p/5uG4XmlCAjoORsErnTa6I1T3Uv6yBAhv7wHAvuGea3D3U2FCAEARsCOw30rM29q4rMWtK4UAQE90VIQKGV6BdaOjocGvAWCZ4JAKRMCvvAiCWCoKosmvBYhYOxKPd4bp/BZDCC1FgQk08a7pFcgHJ0HgmeCwFqmJ2DdXUUA0A375jqXCQBzMdcAhxV63INQ+CwG43LGfM5zFWKuQJA6CwRHnlyZpK8yO9GVnRQDAB0gAMChQtuAsOb9Em2wwxY/qJ2d3z9LuuW5G6bWA8GBmeilzCQS5gUAGAzbAzqTCQAzsTwp2pPpcQ9C6bMY9Fdlmff3auc1K5XpFShaODYcaS0QHBh3lsqEgPtWTgoAHak0/l/ajzN/1QAEBJyuMn9ps4hBGwoxPKg3WgkEUZxcaLuzcCnTG/CFdAigb3Z2Mn5pP5/5qgc4USZ2UsaOykpmFy2eppTZYOy2xXPAMaeBwO7qeSPzxpmK3gAAPWGvmM3s7YX9OPdVD+BYoW0PQsZw3XHY6QmYq92VzEpJX8Q8gV5yEgjsE+5aZojQvVguFECg7IWLqbYN/6lo+GN8Sj3uQUh9FgN37GvcUiYEzDo4ZSmCQO81DgS2++laZu1kngwAvLNviBOZhv5/tZ3gO/VTEdALmb3Ri9Aj9vVuru1qZpOOTl2KIDAYtQNBZdJwwbAgAF2qjOvf3DZX+mdicy/ApVQmJPwSIcG7ytDGubarmU06LqMUQWBwvO1UDAD7VN7wpO1Qnpcyb3pTcZUf8C2VmZPwS7ZXgYahezvDGzermU191SPzO/8s9sEYJAIBgM7YpTol07if2c9p7AP9V2o75Oi3CAons6+LU3sLcSWzVGZu6NpzHWgRgQBAbZWx+tLjBv2LyufV7wEwPqlMYPilbXAoxzL8qPI6OdW20T9R2K+NpVgyflQIBBiMyvJq0nZc+W/771LmTWhjNG9Gz9lp1EtPr9S/2Pn3vN2KAIxIqe1r88Oe+4pQG6Q7r52bzzeLGFTv65NULBk/SgQCDFpl8ulM5oX5tR4PV6lK99yXSfrnwOELe/NhouNdyruN+I2Z+vcGBQDS0ws70jZE7JPZxxwzP/K13dfRicIayuNKIemrpPtQwxfaRyDAaFUmr24+Vq/szLuvCHik1Lbxk2kbTDM9buQ07u3amchdte/+zXCHjXmTcwPwopQZEvSV3nJIBALgqD1jPyXTyyAxCRbNFfaWyTT4U/V4OFulR056HCaqYbt6P4DuFDKvMd+ZIIxdBALAgZ2xpPPKl15XPq9+D4av1NMr/MXmRtf8kwAx09Mx2NWvAzhfIWktegLwDAIB4MFOQ0h6GhaqQWLf19G9Uo/HL1fHLmf268pXi7SjekalsmTt1N76PnkTaMta5vVpzYUHnIpAAPRUpYFUte8+6WnAOOUxfVfq6QTEjUxPJ4sXejxJvLdDd8bqmU3tql8DhiTTdihQ6rUS9BaBAMCzjkw69YlNj1BLJUzP9HSY0nz3+4HAZDIB4EFSyusgXCAQAACwozIvaKJtWNj0tG2+BrStlAkADzIhgAshaAWBAACAGg4MUaquXT8XcLpS28Z/JtP4L/yVgzEhEAAA0KIDvQ3V/Rzm3VaEAGQyc5Z+yVz5Z+UxeEUgAAAgAAeWYZW2Q5UmCm8uDw4rtW34/1bP9xnBsBEIAADomZ3wUP28OmRpIgJEm0ptlxz+Ze9LRaMfPUQgAABgBHY2UJzocVioBol9Xx+LUvv3G6nez8ReDA6BAAAAPGsnUGxMdXg36eo8iVNMdDyElDq8t8g+D3vue3IM1u4HCAQAAADAqP2f7wIAAAAA+EMgAAAAAEaMQAAAAACMGIEAAAAAGDECAQAAADBiBAIAAABgxAgEAAAAwIgRCAAAAIARIxAAAAAAI0YgAAAAAEaMQAAAAACMGIEAAAAAGDECAQAAADBiBAIAAABgxAgEAAAAwIgRCAAAAIARIxAAAAAAI0YgAAAAAEaMQAAAAACMGIEAAAAAGDECAQAAADBiBAIAAABgxP4f026EY/DnlxYAAAAASUVORK5CYII=;opacity=50;" parent="1" vertex="1">
          <mxGeometry x="30.45" y="60" width="614.08" height="280" as="geometry" />
        </mxCell>
        <mxCell id="DBni2ND7SN6QVj1qnKWI-17" value="&lt;font face=&quot;space age&quot;&gt;&lt;font style=&quot;font-size: 90px;&quot;&gt;M&lt;/font&gt;&lt;span style=&quot;font-size: 70px;&quot;&gt;onitor&lt;/span&gt;&lt;/font&gt;" style="text;html=1;align=left;verticalAlign=middle;whiteSpace=wrap;rounded=0;" parent="1" vertex="1">
          <mxGeometry x="45" y="190" width="510" height="70" as="geometry" />
        </mxCell>
        <mxCell id="DBni2ND7SN6QVj1qnKWI-1" value="&lt;font style=&quot;font-size: 50px;&quot;&gt;&lt;font face=&quot;space age&quot; style=&quot;font-size: 50px;&quot;&gt;A&lt;/font&gt;&lt;font face=&quot;space age&quot; style=&quot;font-size: 50px;&quot;&gt;ir &lt;/font&gt;&lt;font face=&quot;space age&quot; style=&quot;font-size: 50px;&quot;&gt;Q&lt;/font&gt;&lt;font face=&quot;space age&quot; style=&quot;font-size: 50px;&quot;&gt;uality&lt;/font&gt;&lt;/font&gt;" style="text;html=1;align=left;verticalAlign=middle;whiteSpace=wrap;rounded=0;" parent="1" vertex="1">
          <mxGeometry x="45" y="140" width="600" height="50" as="geometry" />
        </mxCell>
      </root>
    </mxGraphModel>
  </diagram>
</mxfile>
